<svg width="32" height="32" viewBox="0 0 53 53" fill="none" xmlns="http://www.w3.org/2000/svg">
<g id="&#240;&#159;&#166;&#134; icon &#34;verified&#34;">
<path id="Vector" d="M50.7916 26.5L45.4033 20.3387L46.1541 12.19L38.1821 10.3792L34.0083 3.3125L26.5 6.53667L18.9916 3.3125L14.8179 10.3571L6.84581 12.1458L7.59665 20.3167L2.20831 26.5L7.59665 32.6612L6.84581 40.8321L14.8179 42.6429L18.9916 49.6875L26.5 46.4412L34.0083 49.6654L38.1821 42.6208L46.1541 40.81L45.4033 32.6612L50.7916 26.5ZM20.7141 35.3554L15.4583 30.0554C14.5971 29.1942 14.5971 27.8029 15.4583 26.9417L15.6129 26.7871C16.4741 25.9258 17.8875 25.9258 18.7487 26.7871L22.3041 30.3646L33.6771 18.9696C34.5383 18.1083 35.9516 18.1083 36.8129 18.9696L36.9675 19.1242C37.8287 19.9854 37.8287 21.3767 36.9675 22.2379L23.8941 35.3554C22.9887 36.2167 21.5975 36.2167 20.7141 35.3554Z" fill="#0066A1"/>
</g>
</svg>
