<svg width="80" height="100" viewBox="0 0 162 191" fill="none" xmlns="http://www.w3.org/2000/svg">
<g id="&#240;&#159;&#166;&#134; icon &#34;call&#34;">
<path id="Vector" d="M129.756 120.843L112.617 118.546C108.501 117.992 104.452 119.655 101.551 123.06L89.1353 137.631C70.0397 126.228 54.3853 107.935 44.6688 85.4447L57.1518 70.7944C60.0533 67.3892 61.4703 62.6378 60.998 57.8072L59.0412 37.8512C58.2315 29.853 52.496 23.8345 45.6135 23.8345H33.9402C26.3155 23.8345 19.9727 31.2784 20.4451 40.2269C24.0213 107.856 70.1072 161.863 127.664 166.061C135.289 166.615 141.631 159.171 141.631 150.222V136.523C141.699 128.524 136.571 121.793 129.756 120.843Z" fill="#0066A1"/>
</g>
</svg>
