<svg width="242" height="42" viewBox="0 0 242 42" fill="none" xmlns="http://www.w3.org/2000/svg">
<g id="Group 13">
<path id="Star 1" d="M21 0L25.7148 14.5106H40.9722L28.6287 23.4787L33.3435 37.9894L21 29.0213L8.65651 37.9894L13.3713 23.4787L1.02781 14.5106H16.2852L21 0Z" fill="#EB9C00"/>
<path id="Star 2" d="M71 0L75.7148 14.5106H90.9722L78.6287 23.4787L83.3435 37.9894L71 29.0213L58.6565 37.9894L63.3713 23.4787L51.0278 14.5106H66.2852L71 0Z" fill="#EB9C00"/>
<path id="Star 3" d="M121 0L125.715 14.5106H140.972L128.629 23.4787L133.343 37.9894L121 29.0213L108.657 37.9894L113.371 23.4787L101.028 14.5106H116.285L121 0Z" fill="#EB9C00"/>
<path id="Star 4" d="M171 0L175.715 14.5106H190.972L178.629 23.4787L183.343 37.9894L171 29.0213L158.657 37.9894L163.371 23.4787L151.028 14.5106H166.285L171 0Z" fill="#EB9C00"/>
<path id="Star 5" d="M221 0L225.715 14.5106H240.972L228.629 23.4787L233.343 37.9894L221 29.0213L208.657 37.9894L213.371 23.4787L201.028 14.5106H216.285L221 0Z" fill="#EB9C00"/>
</g>
</svg>
